<?xml version="1.0" encoding="utf-8"?>
<!-- Generator: Adobe Illustrator 16.0.5, SVG Export Plug-In . SVG Version: 6.00 Build 0)  -->
<!DOCTYPE svg PUBLIC "-//W3C//DTD SVG 1.1//EN" "http://www.w3.org/Graphics/SVG/1.1/DTD/svg11.dtd">
<svg version="1.1" id="Layer_1" xmlns="http://www.w3.org/2000/svg" xmlns:xlink="http://www.w3.org/1999/xlink" x="0px" y="0px"
	 width="159px" height="159px" viewBox="0 0 159 159" enable-background="new 0 0 159 159" xml:space="preserve">
<g>
	<defs>
		<rect id="SVGID_1_" x="-22" y="46.588" width="202.266" height="65.412"/>
	</defs>
	<clipPath id="SVGID_2_">
		<use xlink:href="#SVGID_1_"  overflow="visible"/>
	</clipPath>
	<path clip-path="url(#SVGID_2_)" fill="none" stroke="#E6C590" stroke-width="0" d="M12.355,74.748v-6.14h1.74
		c1.66,0,2.48,0.64,2.48,2.46v1.26c0,1.56-0.6,2.42-2.14,2.42H12.355z M12.355,67.768v-5.34h2c1.5,0,1.96,0.761,1.96,2.221v0.899
		c0,1.78-0.76,2.22-2.4,2.22H12.355z M11.436,61.588v14h3c2.14,0,3.06-1.22,3.06-3.24v-1.22c0-1.58-0.58-2.7-2.1-3
		c1.42-0.3,1.84-1.24,1.84-2.76v-0.8c0-1.94-0.76-2.98-2.86-2.98H11.436z"/>
	<polygon clip-path="url(#SVGID_2_)" fill="none" stroke="#E6C590" stroke-width="0" points="21.575,75.588 22.496,75.588 
		22.496,70.208 25.655,61.588 24.755,61.588 22.075,68.948 19.396,61.588 18.436,61.588 21.575,70.208 	"/>
</g>
<g>
	<path fill="#E6C590" d="M14.376,61.585c2.101,0,2.861,1.04,2.861,2.98v0.8c0,1.521-0.42,2.461-1.84,2.761
		c1.52,0.301,2.1,1.421,2.1,3.001v1.221c0,2.02-0.92,3.24-3.061,3.24h-3V61.585H14.376z M13.917,67.767c1.64,0,2.4-0.44,2.4-2.221
		v-0.9c0-1.46-0.46-2.221-1.96-2.221h-2v5.342H13.917z M14.437,74.748c1.541,0,2.141-0.86,2.141-2.421v-1.26
		c0-1.821-0.82-2.461-2.48-2.461h-1.741v6.142H14.437z"/>
	<path fill="#E6C590" d="M21.596,70.207l-3.141-8.622h0.96l2.68,7.361l2.681-7.361h0.9l-3.161,8.622v5.381h-0.92V70.207z"/>
</g>
<polygon fill="none" stroke="#E6C590" stroke-width="0" points="38.235,75.588 41.399,75.588 41.399,55.988 38.655,55.988 
	38.655,67.72 35.491,55.988 31.627,55.988 31.627,75.588 34.399,75.588 34.399,61.392 "/>
<g>
	<defs>
		<rect id="SVGID_3_" x="-22" y="46.588" width="202.266" height="65.412"/>
	</defs>
	<clipPath id="SVGID_4_">
		<use xlink:href="#SVGID_3_"  overflow="visible"/>
	</clipPath>
	<path clip-path="url(#SVGID_4_)" fill="none" stroke="#E6C590" stroke-width="0" d="M43.359,70.884
		c0,3.136,1.652,4.928,4.676,4.928c3.024,0,4.676-1.792,4.676-4.928V60.692c0-3.137-1.652-4.929-4.676-4.929
		c-3.024,0-4.676,1.792-4.676,4.929V70.884z M46.439,60.496c0-1.4,0.616-1.932,1.596-1.932c0.98,0,1.596,0.531,1.596,1.932V71.08
		c0,1.4-0.616,1.932-1.596,1.932c-0.98,0-1.596-0.531-1.596-1.932V60.496z"/>
	<polygon clip-path="url(#SVGID_4_)" fill="none" stroke="#E6C590" stroke-width="0" points="57.779,58.788 63.099,58.788 
		63.099,55.988 54.699,55.988 54.699,75.588 63.099,75.588 63.099,72.788 57.779,72.788 57.779,67.048 62.007,67.048 62.007,64.248 
		57.779,64.248 	"/>
	<polygon clip-path="url(#SVGID_4_)" fill="none" stroke="#E6C590" stroke-width="0" points="65.003,75.588 73.151,75.588 
		73.151,72.788 68.083,72.788 68.083,55.988 65.003,55.988 	"/>
	<polygon clip-path="url(#SVGID_4_)" fill="none" stroke="#E6C590" stroke-width="0" points="83.09,55.988 78.806,55.988 
		78.806,75.588 81.494,75.588 81.494,61.728 83.791,75.588 86.702,75.588 88.83,61.532 88.83,75.588 91.742,75.588 91.742,55.988 
		87.459,55.988 85.358,69.904 	"/>
	<path clip-path="url(#SVGID_4_)" fill="none" stroke="#E6C590" stroke-width="0" d="M93.842,55.988v14.924
		c0,3.136,1.568,4.928,4.592,4.928c3.024,0,4.592-1.792,4.592-4.928V55.988h-2.912v15.12c0,1.399-0.615,1.903-1.596,1.903
		c-0.979,0-1.596-0.504-1.596-1.903v-15.12H93.842z"/>
	<path clip-path="url(#SVGID_4_)" fill="none" stroke="#E6C590" stroke-width="0" d="M109.689,58.788
		c1.092,0,1.568,0.616,1.568,2.016v1.933c0,1.567-0.7,2.071-1.848,2.071h-1.205v-6.02H109.689z M114.701,75.588
		c-0.308-0.728-0.336-1.428-0.336-2.38v-3.024c0-2.044-0.504-3.527-2.043-4.172c1.371-0.644,2.016-1.96,2.016-3.976v-1.54
		c0-3.024-1.372-4.508-4.564-4.508h-4.647v19.6h3.079v-7.979h1.064c1.4,0,2.016,0.672,2.016,2.491v3.08
		c0,1.597,0.113,1.904,0.281,2.408H114.701z"/>
	<path clip-path="url(#SVGID_4_)" fill="none" stroke="#E6C590" stroke-width="0" d="M120.945,58.788
		c1.092,0,1.568,0.616,1.568,2.016v1.933c0,1.567-0.7,2.071-1.848,2.071h-1.205v-6.02H120.945z M125.957,75.588
		c-0.308-0.728-0.336-1.428-0.336-2.38v-3.024c0-2.044-0.504-3.527-2.043-4.172c1.371-0.644,2.016-1.96,2.016-3.976v-1.54
		c0-3.024-1.372-4.508-4.564-4.508h-4.647v19.6h3.079v-7.979h1.064c1.4,0,2.016,0.672,2.016,2.491v3.08
		c0,1.597,0.113,1.904,0.281,2.408H125.957z"/>
	<path clip-path="url(#SVGID_4_)" fill="none" stroke="#E6C590" stroke-width="0" d="M132.062,59.46l1.483,9.912h-2.968
		L132.062,59.46z M134.469,55.988h-4.508l-3.136,19.6h2.828l0.532-3.556h3.779l0.533,3.556h3.107L134.469,55.988z"/>
	<polygon clip-path="url(#SVGID_4_)" fill="none" stroke="#E6C590" stroke-width="0" points="140.545,75.588 143.625,75.588 
		143.625,69.092 147.518,55.988 144.577,55.988 142.226,64.92 139.873,55.988 136.653,55.988 140.545,69.092 	"/>
</g>
<g>
	<path fill="#E6C590" d="M34.399,61.392v14.196h-2.772v-19.6h3.864l3.164,11.731V55.988h2.744v19.6h-3.164L34.399,61.392z"/>
	<path fill="#E6C590" d="M43.359,60.692c0-3.137,1.652-4.929,4.676-4.929s4.676,1.792,4.676,4.929v10.191
		c0,3.136-1.652,4.928-4.676,4.928s-4.676-1.792-4.676-4.928V60.692z M46.438,71.08c0,1.399,0.616,1.932,1.596,1.932
		s1.596-0.532,1.596-1.932V60.496c0-1.4-0.616-1.932-1.596-1.932s-1.596,0.531-1.596,1.932V71.08z"/>
	<path fill="#E6C590" d="M57.779,64.248h4.228v2.8h-4.228v5.74h5.32v2.8h-8.4v-19.6h8.4v2.8h-5.32V64.248z"/>
	<path fill="#E6C590" d="M65.003,55.988h3.08v16.8h5.068v2.8h-8.148V55.988z"/>
	<path fill="#E6C590" d="M85.358,69.904l2.101-13.916h4.283v19.6H88.83V61.532l-2.128,14.056h-2.911l-2.297-13.86v13.86h-2.688
		v-19.6h4.284L85.358,69.904z"/>
	<path fill="#E6C590" d="M96.922,55.988v15.119c0,1.4,0.615,1.904,1.596,1.904s1.596-0.504,1.596-1.904V55.988h2.912v14.924
		c0,3.136-1.567,4.928-4.592,4.928c-3.023,0-4.592-1.792-4.592-4.928V55.988H96.922z"/>
	<path fill="#E6C590" d="M111.566,75.588c-0.168-0.504-0.281-0.812-0.281-2.408V70.1c0-1.819-0.615-2.491-2.016-2.491h-1.063v7.979
		h-3.08v-19.6h4.647c3.192,0,4.564,1.483,4.564,4.508v1.54c0,2.016-0.645,3.332-2.016,3.976c1.539,0.645,2.043,2.128,2.043,4.172
		v3.024c0,0.952,0.029,1.652,0.336,2.38H111.566z M108.206,58.788v6.02h1.204c1.147,0,1.848-0.504,1.848-2.071v-1.933
		c0-1.399-0.477-2.016-1.568-2.016H108.206z"/>
	<path fill="#E6C590" d="M122.822,75.588c-0.168-0.504-0.281-0.812-0.281-2.408V70.1c0-1.819-0.615-2.491-2.016-2.491h-1.063v7.979
		h-3.08v-19.6h4.647c3.192,0,4.564,1.483,4.564,4.508v1.54c0,2.016-0.645,3.332-2.016,3.976c1.539,0.645,2.043,2.128,2.043,4.172
		v3.024c0,0.952,0.029,1.652,0.336,2.38H122.822z M119.462,58.788v6.02h1.204c1.147,0,1.848-0.504,1.848-2.071v-1.933
		c0-1.399-0.477-2.016-1.568-2.016H119.462z"/>
	<path fill="#E6C590" d="M137.605,75.588h-3.107l-0.533-3.556h-3.779l-0.532,3.556h-2.827l3.135-19.6h4.509L137.605,75.588z
		 M130.578,69.372h2.967l-1.483-9.912L130.578,69.372z"/>
	<path fill="#E6C590" d="M140.545,69.092l-3.892-13.104h3.22l2.353,8.932l2.353-8.932h2.939l-3.893,13.104v6.496h-3.08V69.092z"/>
</g>
<g>
	<defs>
		<rect id="SVGID_5_" x="-22" y="46.588" width="202.266" height="65.412"/>
	</defs>
	<clipPath id="SVGID_6_">
		<use xlink:href="#SVGID_5_"  overflow="visible"/>
	</clipPath>
	<path clip-path="url(#SVGID_6_)" fill="none" stroke="#E6C590" stroke-width="0" d="M18.472,91.204
		c0,5.656-6.104,6.607-6.104,12.376v2.408h8.904v-2.8h-5.824c-0.028-0.141-0.028-0.28-0.028-0.421c0-3.22,6.132-5.516,6.132-11.676
		c0-3.136-1.568-4.928-4.592-4.928s-4.592,1.792-4.592,4.928v1.904h2.912v-2.1c0-1.4,0.616-1.933,1.596-1.933
		S18.472,89.44,18.472,91.204z"/>
	<path clip-path="url(#SVGID_6_)" fill="none" stroke="#E6C590" stroke-width="0" d="M23.204,101.284
		c0,3.136,1.652,4.928,4.676,4.928s4.676-1.792,4.676-4.928V91.092c0-3.136-1.652-4.928-4.676-4.928s-4.676,1.792-4.676,4.928
		V101.284z M26.283,90.896c0-1.4,0.616-1.933,1.596-1.933s1.596,0.532,1.596,1.933v10.584c0,1.399-0.616,1.932-1.596,1.932
		s-1.596-0.532-1.596-1.932V90.896z"/>
	<polygon clip-path="url(#SVGID_6_)" fill="none" stroke="#E6C590" stroke-width="0" points="43.139,86.388 38.855,86.388 
		38.855,105.988 41.543,105.988 41.543,92.128 43.839,105.988 46.751,105.988 48.879,91.932 48.879,105.988 51.792,105.988 
		51.792,86.388 47.507,86.388 45.407,100.304 	"/>
	<path clip-path="url(#SVGID_6_)" fill="none" stroke="#E6C590" stroke-width="0" d="M58.455,89.86l1.484,9.912h-2.968L58.455,89.86
		z M60.863,86.388h-4.508l-3.136,19.601h2.828l0.532-3.557h3.78l0.532,3.557h3.108L60.863,86.388z"/>
	<path clip-path="url(#SVGID_6_)" fill="none" stroke="#E6C590" stroke-width="0" d="M69.991,89.188
		c1.092,0,1.568,0.615,1.568,2.016v1.932c0,1.568-0.7,2.072-1.848,2.072h-1.204v-6.02H69.991z M75.003,105.988
		c-0.308-0.729-0.336-1.429-0.336-2.38v-3.024c0-2.044-0.504-3.528-2.044-4.172c1.372-0.645,2.016-1.96,2.016-3.977v-1.539
		c0-3.024-1.372-4.509-4.564-4.509h-4.648v19.601h3.08v-7.98h1.064c1.4,0,2.016,0.672,2.016,2.492v3.08
		c0,1.596,0.112,1.904,0.28,2.408H75.003z"/>
	<path clip-path="url(#SVGID_6_)" fill="none" stroke="#E6C590" stroke-width="0" d="M82.703,98.68v2.801
		c0,1.399-0.617,1.903-1.597,1.903s-1.596-0.504-1.596-1.903V90.896c0-1.4,0.616-1.933,1.596-1.933s1.597,0.532,1.597,1.933v2.1
		h2.912v-1.904c0-3.136-1.568-4.928-4.593-4.928c-3.024,0-4.592,1.792-4.592,4.928v10.192c0,3.136,1.568,4.928,4.592,4.928
		c3.024,0,4.593-1.792,4.593-4.928V98.68H82.703z"/>
	<polygon clip-path="url(#SVGID_6_)" fill="none" stroke="#E6C590" stroke-width="0" points="90.57,97.588 94.07,97.588 
		94.07,105.988 97.206,105.988 97.206,86.388 94.07,86.388 94.07,94.788 90.57,94.788 90.57,86.388 87.49,86.388 87.49,105.988 
		90.57,105.988 	"/>
	<path clip-path="url(#SVGID_6_)" fill="none" stroke="#E6C590" stroke-width="0" d="M109.89,91.204
		c0,5.656-6.104,6.607-6.104,12.376v2.408h8.904v-2.8h-5.824c-0.027-0.141-0.027-0.28-0.027-0.421c0-3.22,6.132-5.516,6.132-11.676
		c0-3.136-1.567-4.928-4.592-4.928s-4.593,1.792-4.593,4.928v1.904h2.912v-2.1c0-1.4,0.617-1.933,1.597-1.933
		S109.89,89.44,109.89,91.204z"/>
	<path clip-path="url(#SVGID_6_)" fill="none" stroke="#E6C590" stroke-width="0" d="M114.621,101.284
		c0,3.136,1.652,4.928,4.677,4.928s4.676-1.792,4.676-4.928V91.092c0-3.136-1.651-4.928-4.676-4.928s-4.677,1.792-4.677,4.928
		V101.284z M117.701,90.896c0-1.4,0.617-1.933,1.597-1.933s1.596,0.532,1.596,1.933v10.584c0,1.399-0.616,1.932-1.596,1.932
		s-1.597-0.532-1.597-1.932V90.896z"/>
	<path clip-path="url(#SVGID_6_)" fill="none" stroke="#E6C590" stroke-width="0" d="M127.865,91.036h2.381v14.952h3.08V86.388
		h-2.072c-0.477,1.316-1.008,2.464-3.389,2.464V91.036z"/>
	<path clip-path="url(#SVGID_6_)" fill="none" stroke="#E6C590" stroke-width="0" d="M142.985,92.296c0,1.568-0.7,2.072-1.848,2.072
		h-1.204v2.8h1.036c1.399,0,2.016,0.672,2.016,2.492v1.54c0,1.735-0.616,2.212-1.596,2.212s-1.597-0.532-1.597-1.932v-1.82h-2.912
		v1.624c0,3.136,1.568,4.928,4.593,4.928s4.592-1.792,4.592-4.928v-1.54c0-1.988-0.616-3.444-2.155-4.116
		c1.483-0.616,2.155-1.932,2.155-4.032v-0.504c0-3.136-1.567-4.928-4.592-4.928s-4.593,1.792-4.593,4.928v1.064h2.912v-1.26
		c0-1.4,0.617-1.933,1.597-1.933s1.596,0.477,1.596,2.24V92.296z"/>
	<g clip-path="url(#SVGID_6_)">
		<path fill="#E6C590" d="M16.875,88.965c-0.98,0-1.596,0.531-1.596,1.932v2.1h-2.912v-1.903c0-3.137,1.568-4.929,4.592-4.929
			s4.592,1.792,4.592,4.929c0,6.159-6.132,8.455-6.132,11.676c0,0.14,0,0.279,0.028,0.42h5.824v2.8h-8.904v-2.408
			c0-5.768,6.104-6.72,6.104-12.376C18.472,89.44,17.855,88.965,16.875,88.965z"/>
		<path fill="#E6C590" d="M23.204,91.093c0-3.137,1.652-4.929,4.676-4.929s4.676,1.792,4.676,4.929v10.191
			c0,3.136-1.652,4.928-4.676,4.928s-4.676-1.792-4.676-4.928V91.093z M26.283,101.48c0,1.399,0.616,1.932,1.596,1.932
			s1.596-0.532,1.596-1.932V90.896c0-1.4-0.616-1.932-1.596-1.932s-1.596,0.531-1.596,1.932V101.48z"/>
		<path fill="#E6C590" d="M45.407,100.305l2.1-13.916h4.284v19.6h-2.912V91.933l-2.128,14.056h-2.912l-2.296-13.86v13.86h-2.688
			v-19.6h4.284L45.407,100.305z"/>
		<path fill="#E6C590" d="M63.999,105.988h-3.108l-0.532-3.556h-3.78l-0.532,3.556h-2.828l3.136-19.6h4.508L63.999,105.988z
			 M56.971,99.772h2.968l-1.484-9.912L56.971,99.772z"/>
		<path fill="#E6C590" d="M71.867,105.988c-0.168-0.504-0.28-0.812-0.28-2.408v-3.08c0-1.819-0.616-2.491-2.016-2.491h-1.064v7.979
			h-3.08v-19.6h4.648c3.192,0,4.564,1.483,4.564,4.508v1.54c0,2.016-0.644,3.332-2.016,3.976c1.54,0.645,2.044,2.128,2.044,4.172
			v3.024c0,0.952,0.028,1.652,0.336,2.38H71.867z M68.507,89.188v6.02h1.204c1.148,0,1.848-0.504,1.848-2.071v-1.933
			c0-1.399-0.476-2.016-1.568-2.016H68.507z"/>
		<path fill="#E6C590" d="M85.614,98.681v2.604c0,3.136-1.567,4.928-4.592,4.928c-3.024,0-4.592-1.792-4.592-4.928V91.093
			c0-3.137,1.568-4.929,4.592-4.929c3.024,0,4.592,1.792,4.592,4.929v1.903h-2.911v-2.1c0-1.4-0.617-1.932-1.597-1.932
			s-1.596,0.531-1.596,1.932v10.584c0,1.399,0.617,1.904,1.596,1.904s1.597-0.505,1.597-1.904v-2.8H85.614z"/>
		<path fill="#E6C590" d="M90.57,105.988h-3.08v-19.6h3.08v8.399h3.5v-8.399h3.136v19.6H94.07v-8.4h-3.5V105.988z"/>
		<path fill="#E6C590" d="M108.294,88.965c-0.979,0-1.596,0.531-1.596,1.932v2.1h-2.912v-1.903c0-3.137,1.567-4.929,4.592-4.929
			s4.592,1.792,4.592,4.929c0,6.159-6.132,8.455-6.132,11.676c0,0.14,0,0.279,0.028,0.42h5.823v2.8h-8.903v-2.408
			c0-5.768,6.104-6.72,6.104-12.376C109.891,89.44,109.273,88.965,108.294,88.965z"/>
		<path fill="#E6C590" d="M114.622,91.093c0-3.137,1.651-4.929,4.676-4.929s4.676,1.792,4.676,4.929v10.191
			c0,3.136-1.651,4.928-4.676,4.928s-4.676-1.792-4.676-4.928V91.093z M117.701,101.48c0,1.399,0.617,1.932,1.597,1.932
			s1.597-0.532,1.597-1.932V90.896c0-1.4-0.617-1.932-1.597-1.932s-1.597,0.531-1.597,1.932V101.48z"/>
		<path fill="#E6C590" d="M127.865,88.853c2.381,0,2.912-1.148,3.389-2.464h2.072v19.6h-3.08V91.036h-2.381V88.853z"/>
		<path fill="#E6C590" d="M142.986,91.204c0-1.764-0.617-2.239-1.597-2.239s-1.597,0.531-1.597,1.932v1.26h-2.911v-1.063
			c0-3.137,1.567-4.929,4.592-4.929s4.592,1.792,4.592,4.929v0.504c0,2.1-0.672,3.416-2.155,4.031
			c1.539,0.673,2.155,2.128,2.155,4.116v1.54c0,3.136-1.567,4.928-4.592,4.928s-4.592-1.792-4.592-4.928V99.66h2.911v1.82
			c0,1.399,0.617,1.932,1.597,1.932s1.597-0.476,1.597-2.212v-1.54c0-1.82-0.617-2.492-2.017-2.492h-1.036v-2.8h1.204
			c1.147,0,1.849-0.504,1.849-2.072V91.204z"/>
	</g>
</g>
</svg>
