<?xml version="1.0" encoding="utf-8"?>
<!-- Generator: Adobe Illustrator 16.0.5, SVG Export Plug-In . SVG Version: 6.00 Build 0)  -->
<!DOCTYPE svg PUBLIC "-//W3C//DTD SVG 1.1//EN" "http://www.w3.org/Graphics/SVG/1.1/DTD/svg11.dtd">
<svg version="1.1" id="Layer_1" xmlns="http://www.w3.org/2000/svg" xmlns:xlink="http://www.w3.org/1999/xlink" x="0px" y="0px"
	 width="579px" height="505px" viewBox="0 0 579 505" enable-background="new 0 0 579 505" xml:space="preserve">
<polygon fill="none" stroke="#000000" stroke-width="6" points="177.469,140.154 163.427,126.112 137.585,152.308 111.153,126.348 
	97.111,140.39 123.425,166.35 97.111,192.782 111.153,206.824 137.585,180.746 163.427,206.942 177.469,192.9 151.391,166.586 "/>
<g>
	<path fill="#E6C590" d="M151.389,166.587l26.077,26.313l-14.042,14.041l-25.841-26.195l-26.431,26.077l-14.042-14.041
		l26.313-26.432l-26.313-25.959l14.042-14.042l26.431,25.96l25.841-26.195l14.042,14.041L151.389,166.587z"/>
</g>
<rect x="186.199" y="163.636" fill="none" stroke="#000000" stroke-width="6" width="43.66" height="16.521"/>
<g>
	<path fill="#E6C590" d="M229.858,180.156h-43.659v-16.52h43.659V180.156z"/>
</g>
<polygon fill="none" stroke="#000000" stroke-width="6" points="304.789,128.236 304.789,128.354 304.789,128.236 282.723,171.66 
	261.011,128.59 261.011,128.236 242.485,128.236 242.485,204.936 261.011,204.936 261.011,166.114 278.711,204.936 286.735,204.936 
	304.789,165.76 304.789,204.936 323.197,204.936 323.197,128.236 "/>
<polygon fill="none" stroke="#000000" stroke-width="6" points="393.643,144.756 393.643,128.236 335.94,128.236 335.94,204.936 
	393.643,204.936 393.643,188.534 354.349,188.534 354.349,174.846 385.383,174.846 385.383,158.444 354.349,158.444 
	354.349,144.756 "/>
<polygon fill="none" stroke="#000000" stroke-width="6" points="460.948,128.236 460.948,176.026 422.717,128.236 404.309,128.236 
	404.309,204.936 422.717,204.936 422.717,159.034 460.948,204.936 479.356,204.936 479.356,128.236 "/>
<g>
	<path fill="#E6C590" d="M323.194,128.238v76.697h-18.407v-39.175l-18.054,39.175h-8.023l-17.7-38.82v38.82h-18.525v-76.697h18.525
		v0.354l21.711,43.068l22.065-43.422v0.118v-0.118H323.194z"/>
	<path fill="#E6C590" d="M354.466,144.758v13.688h31.032v16.401h-31.032v13.688h39.292v16.401h-57.699v-76.697h57.699v16.52H354.466
		z"/>
	<path fill="#E6C590" d="M479.543,128.238v76.697h-18.408l-38.23-45.9v45.9h-18.408v-76.697h18.408l38.23,47.788v-47.788H479.543z"
		/>
</g>
<g>
	<defs>
		<rect id="SVGID_1_" x="65" y="82.786" width="526.213" height="433.214"/>
	</defs>
	<clipPath id="SVGID_2_">
		<use xlink:href="#SVGID_1_"  overflow="visible"/>
	</clipPath>
	<path clip-path="url(#SVGID_2_)" fill="none" stroke="#000000" stroke-width="6" d="M172.959,253.328h-11.356v-22.984h11.356
		c5.576,0,10.472,4.828,10.472,11.424C183.431,248.364,178.467,253.124,172.959,253.328z M171.939,219.736h-20.944v44.199h20.944
		c12.24,0,22.1-9.928,22.1-22.168C194.039,229.596,185.471,219.736,171.939,219.736z"/>
	<path clip-path="url(#SVGID_2_)" fill="none" stroke="#000000" stroke-width="6" d="M211.516,249.248l6.256-14.212l6.596,14.212
		H211.516z M231.507,263.936h11.764l-21.148-44.199H214.1l-21.964,44.199h11.968l2.992-6.052h21.42L231.507,263.936z"/>
	<polygon clip-path="url(#SVGID_2_)" fill="none" stroke="#000000" stroke-width="6" points="268.907,219.736 256.938,235.784 
		244.902,219.736 231.71,219.736 250.343,245.304 250.343,263.936 263.535,263.936 263.535,245.304 282.099,219.736 	"/>
	<path clip-path="url(#SVGID_2_)" fill="none" stroke="#000000" stroke-width="6" d="M300.254,265.092
		c10.541,0,19.517-6.392,19.517-14.008c0-11.696-11.628-13.192-17.815-14.348c-2.448-0.408-9.316-0.408-9.316-4.013
		c0-2.991,3.195-5.372,7.072-5.372c5.779,0,7.615,2.312,7.615,3.4h10.948c0-5.916-6.12-12.24-18.563-12.24
		c-10.2,0-18.564,6.393-18.564,14.212c0,8.364,8.772,10.677,13.939,11.696c2.925,0.612,13.193,1.021,13.193,6.664
		c0,2.72-3.809,5.236-8.025,5.236c-7.819,0-8.295-5.984-8.295-6.053h-11.492C280.467,256.252,286.723,265.092,300.254,265.092z"/>
	<path clip-path="url(#SVGID_2_)" fill="none" stroke="#000000" stroke-width="6" d="M370.293,254.96
		c-7.275,0-13.124-5.848-13.124-13.056s5.849-13.124,13.124-13.124c7.208,0,13.057,5.916,13.057,13.124
		S377.501,254.96,370.293,254.96z M370.293,218.58c-12.92,0-23.324,10.472-23.324,23.324c0,12.852,10.404,23.256,23.324,23.256
		c12.852,0,23.256-10.404,23.256-23.256C393.549,229.052,383.145,218.58,370.293,218.58z"/>
	<polygon clip-path="url(#SVGID_2_)" fill="none" stroke="#000000" stroke-width="6" points="431.629,229.256 431.629,219.736 
		398.309,219.736 398.309,229.256 398.309,263.936 408.917,263.936 408.917,248.84 426.801,248.84 426.801,239.32 408.917,239.32 
		408.917,229.256 	"/>
</g>
<g>
	<path fill="#E6C590" d="M194.034,241.77c0,12.239-9.859,22.166-22.098,22.166h-20.942V219.74h20.942
		C185.467,219.74,194.034,229.599,194.034,241.77z M183.427,241.77c0-6.595-4.896-11.423-10.471-11.423c-2.856,0-11.355,0-11.355,0
		v22.981h11.355C178.464,253.125,183.427,248.365,183.427,241.77z"/>
	<path fill="#E6C590" d="M228.511,257.884h-21.418l-2.992,6.052h-11.967l21.962-44.195h8.023l21.146,44.195h-11.763L228.511,257.884
		z M224.363,249.249l-6.596-14.211l-6.255,14.211H224.363z"/>
	<path fill="#E6C590" d="M282.161,219.74l-18.562,25.565v18.63h-13.19v-18.63l-18.63-25.565h13.19l12.035,16.046l11.967-16.046
		H282.161z"/>
	<path fill="#E6C590" d="M280.601,250.269h11.491c0,0.068,0.477,6.052,8.295,6.052c4.216,0,8.023-2.516,8.023-5.235
		c0-5.644-10.267-6.052-13.19-6.663c-5.167-1.021-13.938-3.332-13.938-11.695c0-7.819,8.363-14.211,18.562-14.211
		c12.442,0,18.562,6.324,18.562,12.239h-10.946c0-1.088-1.836-3.399-7.615-3.399c-3.876,0-7.072,2.38-7.072,5.371
		c0,3.604,6.867,3.604,9.315,4.012c6.188,1.156,17.814,2.651,17.814,14.347c0,7.615-8.976,14.007-19.515,14.007
		C286.856,265.092,280.601,256.252,280.601,250.269z"/>
	<path fill="#E6C590" d="M393.747,241.906c0,12.851-10.403,23.253-23.254,23.253c-12.919,0-23.321-10.402-23.321-23.253
		c0-12.852,10.402-23.322,23.321-23.322C383.344,218.584,393.747,229.055,393.747,241.906z M383.548,241.906
		c0-7.208-5.847-13.123-13.055-13.123c-7.275,0-13.122,5.915-13.122,13.123c0,7.207,5.847,13.055,13.122,13.055
		C377.701,254.961,383.548,249.113,383.548,241.906z"/>
	<path fill="#E6C590" d="M409.187,229.259v10.063h17.882v9.519h-17.882v15.095H398.58v-34.677v-9.519h33.316v9.519H409.187z"/>
</g>
<polygon fill="none" stroke="#000000" stroke-width="6" points="193.121,289.256 193.121,279.736 159.801,279.736 159.801,289.256 
	159.801,323.936 170.409,323.936 170.409,308.84 188.293,308.84 188.293,299.32 170.409,299.32 170.409,289.256 "/>
<g>
	<defs>
		<rect id="SVGID_3_" x="65" y="82.786" width="526.213" height="433.214"/>
	</defs>
	<clipPath id="SVGID_4_">
		<use xlink:href="#SVGID_3_"  overflow="visible"/>
	</clipPath>
	<path clip-path="url(#SVGID_4_)" fill="none" stroke="#000000" stroke-width="6" d="M231.745,279.736v21.691
		c0,6.937-4.896,12.716-11.628,12.716c-6.8,0-11.696-5.779-11.696-12.716v-21.691h-10.812v21.691
		c0,14.212,9.928,23.664,22.508,23.664c12.512,0,22.44-9.452,22.44-23.664v-21.691H231.745z"/>
	<polygon clip-path="url(#SVGID_4_)" fill="none" stroke="#000000" stroke-width="6" points="291.517,279.736 247.317,279.736 
		247.317,289.256 264.113,289.256 264.113,323.936 274.721,323.936 274.721,289.256 291.517,289.256 	"/>
	<path clip-path="url(#SVGID_4_)" fill="none" stroke="#000000" stroke-width="6" d="M330.684,279.736v21.691
		c0,6.937-4.896,12.716-11.627,12.716c-6.801,0-11.696-5.779-11.696-12.716v-21.691h-10.812v21.691
		c0,14.212,9.928,23.664,22.508,23.664c12.512,0,22.439-9.452,22.439-23.664v-21.691H330.684z"/>
	<path clip-path="url(#SVGID_4_)" fill="none" stroke="#000000" stroke-width="6" d="M358.02,290.616h9.045
		c3.604,0,6.527,2.924,6.527,6.527c0,3.673-2.992,6.053-6.596,6.053h-8.977V290.616z M386.376,323.936l-9.724-13.327
		c4.691-2.517,7.888-7.072,7.888-13.465c0-9.655-6.8-17.407-15.845-17.407h-21.487v44.199h10.812V312.92h7.752l7.276,11.016H386.376
		z"/>
	<polygon clip-path="url(#SVGID_4_)" fill="none" stroke="#000000" stroke-width="6" points="422.279,289.256 422.279,279.736 
		389.027,279.736 389.027,323.936 422.279,323.936 422.279,314.484 399.635,314.484 399.635,306.596 417.52,306.596 417.52,297.144 
		399.635,297.144 399.635,289.256 	"/>
</g>
<g>
	<path fill="#E6C590" d="M170.408,289.259v10.063h17.882v9.519h-17.882v15.095h-10.607v-34.677v-9.519h33.316v9.519H170.408z"/>
	<path fill="#E6C590" d="M242.552,279.74v21.689c0,14.211-9.927,23.662-22.438,23.662c-12.579,0-22.506-9.451-22.506-23.662V279.74
		h10.811v21.689c0,6.936,4.896,12.715,11.695,12.715c6.731,0,11.627-5.779,11.627-12.715V279.74H242.552z"/>
	<path fill="#E6C590" d="M291.512,289.259h-16.794v34.677H264.11v-34.677h-16.794v-9.519h44.195V289.259z"/>
	<path fill="#E6C590" d="M341.492,279.74v21.689c0,14.211-9.928,23.662-22.438,23.662c-12.579,0-22.506-9.451-22.506-23.662V279.74
		h10.812v21.689c0,6.936,4.895,12.715,11.694,12.715c6.731,0,11.627-5.779,11.627-12.715V279.74H341.492z"/>
	<path fill="#E6C590" d="M373.045,323.936l-7.275-11.015h-7.752v11.015h-10.811V279.74c0,0,16.25,0,21.486,0
		c9.043,0,15.842,7.751,15.842,17.406c0,6.391-3.195,10.946-7.887,13.463l9.723,13.326H373.045z M358.018,303.197h8.976
		c3.604,0,6.595-2.379,6.595-6.051c0-3.604-2.923-6.527-6.527-6.527h-9.043V303.197z"/>
	<path fill="#E6C590" d="M399.701,289.259v7.888h17.883v9.451h-17.883v7.887h22.643v9.451h-33.249V279.74h33.249v9.519H399.701z"/>
</g>
<g>
</g>
<g>
	<defs>
		<rect id="SVGID_5_" x="65" y="82.786" width="526.213" height="433.214"/>
	</defs>
	<clipPath id="SVGID_6_">
		<use xlink:href="#SVGID_5_"  overflow="visible"/>
	</clipPath>
	<path clip-path="url(#SVGID_6_)" fill="none" stroke="#000000" stroke-width="6" d="M224.707,363.74L224.707,363.74h-8.976v-13.192
		h9.112c3.604,0.068,6.46,2.992,6.46,6.596C231.303,360.816,228.379,363.74,224.707,363.74z M242.251,356.124
		c-0.476-8.636-6.732-16.388-15.844-16.388h-21.488v44.199h10.812v-9.384h9.112c9.248,0,16.864-7.275,17.408-16.388v-1.021V356.124z
		"/>
	<path clip-path="url(#SVGID_6_)" fill="none" stroke="#000000" stroke-width="6" d="M257.62,369.248l6.256-14.212l6.596,14.212
		H257.62z M277.611,383.936h11.764l-21.148-44.199h-8.024l-21.964,44.199h11.968l2.992-6.052h21.42L277.611,383.936z"/>
	<path clip-path="url(#SVGID_6_)" fill="none" stroke="#000000" stroke-width="6" d="M310.25,385.092
		c10.541,0,19.517-6.392,19.517-14.008c0-11.696-11.628-13.192-17.815-14.348c-2.449-0.408-9.316-0.408-9.316-4.013
		c0-2.991,3.195-5.372,7.072-5.372c5.779,0,7.615,2.312,7.615,3.4h10.948c0-5.916-6.12-12.24-18.563-12.24
		c-10.2,0-18.564,6.393-18.564,14.212c0,8.364,8.771,10.677,13.939,11.696c2.925,0.612,13.192,1.021,13.192,6.664
		c0,2.72-3.808,5.236-8.024,5.236c-7.819,0-8.295-5.984-8.295-6.053h-11.492C290.463,376.252,296.719,385.092,310.25,385.092z"/>
	<polygon clip-path="url(#SVGID_6_)" fill="none" stroke="#000000" stroke-width="6" points="376.958,339.736 332.758,339.736 
		332.758,349.256 349.554,349.256 349.554,383.936 360.162,383.936 360.162,349.256 376.958,349.256 	"/>
</g>
<g>
	<path fill="#E6C590" d="M242.246,357.146c0,0.34,0,0.68,0,1.02c-0.544,9.111-8.159,16.387-17.406,16.387h-9.111v9.383h-10.811
		V339.74c0,0,16.25,0,21.486,0c9.111,0,15.367,7.751,15.842,16.386C242.246,356.467,242.246,356.807,242.246,357.146z
		 M231.299,357.146c0-3.604-2.855-6.527-6.459-6.596h-9.111v13.19h8.975C228.376,363.741,231.299,360.818,231.299,357.146z"/>
	<path fill="#E6C590" d="M274.683,377.884h-21.418l-2.992,6.052h-11.967l21.962-44.195h8.023l21.146,44.195h-11.763L274.683,377.884
		z M270.535,369.249l-6.596-14.211l-6.255,14.211H270.535z"/>
	<path fill="#E6C590" d="M290.598,370.269h11.49c0,0.068,0.477,6.052,8.295,6.052c4.216,0,8.023-2.516,8.023-5.235
		c0-5.644-10.267-6.052-13.19-6.663c-5.167-1.021-13.938-3.332-13.938-11.695c0-7.819,8.363-14.211,18.562-14.211
		c12.442,0,18.562,6.324,18.562,12.239h-10.946c0-1.088-1.836-3.399-7.615-3.399c-3.876,0-7.072,2.38-7.072,5.371
		c0,3.604,6.867,3.604,9.315,4.012c6.188,1.156,17.814,2.651,17.814,14.347c0,7.615-8.976,14.007-19.515,14.007
		C296.853,385.092,290.598,376.252,290.598,370.269z"/>
	<path fill="#E6C590" d="M377.156,349.259h-16.795v34.677h-10.606v-34.677h-16.794v-9.519h44.195V349.259z"/>
</g>
<g>
	<defs>
		<rect id="SVGID_7_" x="65" y="82.786" width="526.213" height="433.214"/>
	</defs>
	<clipPath id="SVGID_8_">
		<use xlink:href="#SVGID_7_"  overflow="visible"/>
	</clipPath>
	<path clip-path="url(#SVGID_8_)" fill="none" stroke="#000000" stroke-width="4" d="M144.267,408.7c-5.35,0-7.85,3.5-7.85,8.8v18.1
		c0,5.301,2.5,8.801,7.85,8.801c5.4,0,7.9-3.5,7.9-8.801v-4.35h-3.7v4.55c0,3.15-1.25,5.05-4.1,5.05c-2.8,0-4.1-1.899-4.1-5.05
		v-18.5c0-3.149,1.3-5.05,4.1-5.05c2.85,0,4.1,1.9,4.1,5.05v3.351h3.7v-3.15C152.167,412.2,149.667,408.7,144.267,408.7z"/>
	<polygon clip-path="url(#SVGID_8_)" fill="none" stroke="#000000" stroke-width="4" points="169.616,444.05 169.616,440.5 
		159.616,440.5 159.616,409.05 155.716,409.05 155.716,444.05 	"/>
	<path clip-path="url(#SVGID_8_)" fill="none" stroke="#000000" stroke-width="4" d="M180.865,413.45l3.95,20.2h-7.8L180.865,413.45
		z M185.365,437l1.35,7.05h3.9l-6.7-35h-5.65l-6.7,35h3.6l1.35-7.05H185.365z"/>
	<path clip-path="url(#SVGID_8_)" fill="none" stroke="#000000" stroke-width="4" d="M197.565,425.55V412.6h3.8
		c2.9,0,4.05,1.65,4.05,4.801v3.35c0,3.8-1.85,4.8-4.95,4.8H197.565z M193.665,409.05v35h3.9V429.1h2.75c3.25,0,5.1,1.25,5.1,5.2
		v5.5c0,2.35,0.2,3.25,0.65,4.25h3.95c-0.65-1.2-0.7-2.65-0.7-4.2V434.4c0-3.75-1.2-6.351-4.4-7.301c3-0.949,4.35-3.35,4.35-7.199
		v-2.851c0-5.2-2.3-8-7.8-8H193.665z"/>
	<polygon clip-path="url(#SVGID_8_)" fill="none" stroke="#000000" stroke-width="4" points="217.265,424.55 217.265,412.6 
		227.765,412.6 227.765,409.05 213.365,409.05 213.365,444.05 227.765,444.05 227.765,440.5 217.265,440.5 217.265,428.05 
		225.815,428.05 225.815,424.55 	"/>
	<polygon clip-path="url(#SVGID_8_)" fill="none" stroke="#000000" stroke-width="4" points="249.814,415.9 249.814,444.05 
		253.514,444.05 253.514,409.05 248.064,409.05 242.514,437 236.764,409.05 231.314,409.05 231.314,444.05 234.714,444.05 
		234.714,416.15 240.514,444 244.264,444 	"/>
	<path clip-path="url(#SVGID_8_)" fill="none" stroke="#000000" stroke-width="4" d="M261.064,417.3c0-3.149,1.35-5.05,4.15-5.05
		c2.85,0,4.15,1.9,4.15,5.05v18.5c0,3.2-1.3,5.05-4.15,5.05c-2.8,0-4.15-1.85-4.15-5.05V417.3z M257.214,435.6
		c0,5.301,2.65,8.801,8,8.801c5.4,0,8.05-3.5,8.05-8.801v-18.1c0-5.35-2.65-8.8-8.05-8.8c-5.35,0-8,3.45-8,8.8V435.6z"/>
	<polygon clip-path="url(#SVGID_8_)" fill="none" stroke="#000000" stroke-width="4" points="280.414,415.75 289.364,444.05 
		293.414,444.05 293.414,409.05 289.964,409.05 289.964,434.35 281.864,409.05 276.914,409.05 276.914,444.05 280.414,444.05 	"/>
	<polygon clip-path="url(#SVGID_8_)" fill="none" stroke="#000000" stroke-width="4" points="306.313,444.05 306.313,412.6 
		312.764,412.6 312.764,409.05 296.014,409.05 296.014,412.6 302.463,412.6 302.463,444.05 	"/>
	<polygon clip-path="url(#SVGID_8_)" fill="none" stroke="#000000" stroke-width="4" points="319.412,413.5 319.412,409.05 
		315.662,409.05 315.662,413.9 317.113,413.9 315.863,418.3 317.463,418.3 	"/>
	<path clip-path="url(#SVGID_8_)" fill="none" stroke="#000000" stroke-width="4" d="M330.513,408.7c-5.25,0-7.75,3.35-7.75,8.75
		c0,9.85,11.7,10.6,11.7,18.399c0,3.15-1.301,5-4.1,5c-2.801,0-4.101-1.85-4.101-5v-2.199h-3.649v2c0,5.3,2.5,8.75,7.85,8.75
		s7.9-3.45,7.9-8.75c0-9.851-11.75-10.601-11.75-18.45c0-3.101,1.199-4.95,4-4.95c2.799,0,4,1.85,4,5v1.15h3.699v-0.95
		C338.312,412.15,335.812,408.7,330.513,408.7z"/>
	<polygon clip-path="url(#SVGID_8_)" fill="none" stroke="#000000" stroke-width="4" points="358.412,444.05 358.412,412.6 
		364.862,412.6 364.862,409.05 348.112,409.05 348.112,412.6 354.562,412.6 354.562,444.05 	"/>
	<path clip-path="url(#SVGID_8_)" fill="none" stroke="#000000" stroke-width="4" d="M373.912,413.45l3.949,20.2h-7.799
		L373.912,413.45z M378.412,437l1.35,7.05h3.9l-6.7-35h-5.649l-6.701,35h3.601l1.351-7.05H378.412z"/>
	<polygon clip-path="url(#SVGID_8_)" fill="none" stroke="#000000" stroke-width="4" points="400.611,444.05 400.611,440.5 
		390.611,440.5 390.611,409.05 386.712,409.05 386.712,444.05 	"/>
	<polygon clip-path="url(#SVGID_8_)" fill="none" stroke="#000000" stroke-width="4" points="407.461,424.55 407.461,412.6 
		417.961,412.6 417.961,409.05 403.562,409.05 403.562,444.05 417.961,444.05 417.961,440.5 407.461,440.5 407.461,428.05 
		416.012,428.05 416.012,424.55 	"/>
	<path clip-path="url(#SVGID_8_)" fill="none" stroke="#000000" stroke-width="4" d="M428.91,408.7c-5.25,0-7.75,3.35-7.75,8.75
		c0,9.85,11.7,10.6,11.7,18.399c0,3.15-1.3,5-4.1,5s-4.101-1.85-4.101-5v-2.199h-3.649v2c0,5.3,2.5,8.75,7.85,8.75
		c5.351,0,7.9-3.45,7.9-8.75c0-9.851-11.75-10.601-11.75-18.45c0-3.101,1.2-4.95,4-4.95s4,1.85,4,5v1.15h3.7v-0.95
		C436.711,412.15,434.211,408.7,428.91,408.7z"/>
</g>
<g>
	<path fill="#E6C590" d="M152.167,417.498v3.15h-3.7v-3.351c0-3.149-1.25-5.05-4.101-5.05c-2.8,0-4.1,1.9-4.1,5.05v18.501
		c0,3.15,1.3,5.051,4.1,5.051c2.851,0,4.101-1.9,4.101-5.051v-4.55h3.7v4.351c0,5.3-2.5,8.8-7.9,8.8c-5.351,0-7.851-3.5-7.851-8.8
		v-18.102c0-5.3,2.5-8.801,7.851-8.801C149.667,408.697,152.167,412.198,152.167,417.498z"/>
	<path fill="#E6C590" d="M155.716,444.05v-35.002h3.9V440.5h10v3.55H155.716z"/>
	<path fill="#E6C590" d="M176.516,436.999l-1.35,7.051h-3.6l6.701-35.002h5.65l6.701,35.002h-3.9l-1.35-7.051H176.516z
		 M177.016,433.649h7.801l-3.95-20.201L177.016,433.649z"/>
	<path fill="#E6C590" d="M201.466,409.048c5.5,0,7.8,2.8,7.8,8v2.851c0,3.851-1.35,6.25-4.35,7.2c3.2,0.95,4.4,3.551,4.4,7.301v5.45
		c0,1.55,0.05,3,0.7,4.2h-3.95c-0.45-1-0.65-1.9-0.65-4.25v-5.501c0-3.95-1.85-5.2-5.101-5.2h-2.75v14.951h-3.9v-35.002H201.466z
		 M200.466,425.549c3.1,0,4.95-1,4.95-4.801v-3.35c0-3.15-1.15-4.801-4.05-4.801h-3.8v12.951H200.466z"/>
	<path fill="#E6C590" d="M225.816,424.549v3.5h-8.55V440.5h10.5v3.55h-14.401v-35.002h14.401v3.55h-10.5v11.951H225.816z"/>
	<path fill="#E6C590" d="M244.265,444h-3.75l-5.801-27.852v27.901h-3.4v-35.002h5.45l5.75,27.951l5.55-27.951h5.45v35.002h-3.7
		v-28.151L244.265,444z"/>
	<path fill="#E6C590" d="M257.214,417.498c0-5.351,2.65-8.801,8-8.801c5.4,0,8.05,3.45,8.05,8.801V435.6c0,5.3-2.65,8.8-8.05,8.8
		c-5.351,0-8-3.5-8-8.8V417.498z M261.064,435.799c0,3.2,1.35,5.051,4.15,5.051c2.85,0,4.15-1.851,4.15-5.051v-18.501
		c0-3.149-1.3-5.05-4.15-5.05c-2.8,0-4.15,1.9-4.15,5.05V435.799z"/>
	<path fill="#E6C590" d="M280.414,444.05h-3.5v-35.002h4.95l8.101,25.302v-25.302h3.45v35.002h-4.05l-8.951-28.302V444.05z"/>
	<path fill="#E6C590" d="M302.464,444.05v-31.452h-6.45v-3.55h16.751v3.55h-6.45v31.452H302.464z"/>
	<path fill="#E6C590" d="M317.463,418.298h-1.6l1.25-4.399h-1.451v-4.851h3.751v4.45L317.463,418.298z"/>
	<path fill="#E6C590" d="M338.312,417.448v0.95h-3.699v-1.15c0-3.15-1.2-5-4-5c-2.801,0-4.001,1.85-4.001,4.95
		c0,7.851,11.751,8.601,11.751,18.451c0,5.3-2.551,8.75-7.9,8.75c-5.351,0-7.851-3.45-7.851-8.75v-2h3.649v2.2
		c0,3.149,1.301,5,4.102,5c2.8,0,4.1-1.851,4.1-5c0-7.801-11.701-8.551-11.701-18.401c0-5.4,2.5-8.751,7.751-8.751
		C335.812,408.697,338.312,412.147,338.312,417.448z"/>
	<path fill="#E6C590" d="M354.562,444.05v-31.452h-6.451v-3.55h16.752v3.55h-6.451v31.452H354.562z"/>
	<path fill="#E6C590" d="M369.611,436.999l-1.35,7.051h-3.601l6.7-35.002h5.65l6.701,35.002h-3.9l-1.351-7.051H369.611z
		 M370.111,433.649h7.801l-3.95-20.201L370.111,433.649z"/>
	<path fill="#E6C590" d="M386.761,444.05v-35.002h3.9V440.5h10.001v3.55H386.761z"/>
	<path fill="#E6C590" d="M416.061,424.549v3.5h-8.55V440.5h10.501v3.55H403.61v-35.002h14.401v3.55h-10.501v11.951H416.061z"/>
	<path fill="#E6C590" d="M436.761,417.448v0.95h-3.7v-1.15c0-3.15-1.199-5-4-5s-4,1.85-4,4.95c0,7.851,11.75,8.601,11.75,18.451
		c0,5.3-2.55,8.75-7.9,8.75c-5.35,0-7.85-3.45-7.85-8.75v-2h3.649v2.2c0,3.149,1.3,5,4.101,5c2.8,0,4.1-1.851,4.1-5
		c0-7.801-11.7-8.551-11.7-18.401c0-5.4,2.5-8.751,7.751-8.751C434.261,408.697,436.761,412.147,436.761,417.448z"/>
</g>
<g>
	<defs>
		<rect id="SVGID_9_" x="65" y="82.786" width="526.213" height="433.214"/>
	</defs>
	<clipPath id="SVGID_10_">
		<use xlink:href="#SVGID_9_"  overflow="visible"/>
	</clipPath>
	<path clip-path="url(#SVGID_10_)" fill="none" stroke="#000000" stroke-width="4" d="M105.791,462.7c-5.25,0-7.75,3.35-7.75,8.75
		c0,9.85,11.7,10.6,11.7,18.399c0,3.15-1.3,5-4.1,5c-2.8,0-4.1-1.85-4.1-5v-2.199h-3.65v2c0,5.3,2.5,8.75,7.85,8.75
		s7.9-3.45,7.9-8.75c0-9.851-11.75-10.601-11.75-18.45c0-3.101,1.2-4.95,4-4.95c2.8,0,4,1.85,4,5v1.15h3.7v-0.95
		C113.591,466.15,111.091,462.7,105.791,462.7z"/>
	<polygon clip-path="url(#SVGID_10_)" fill="none" stroke="#000000" stroke-width="4" points="120.94,478.55 120.94,466.6 
		131.44,466.6 131.44,463.05 117.041,463.05 117.041,498.05 131.44,498.05 131.44,494.5 120.94,494.5 120.94,482.05 129.491,482.05 
		129.491,478.55 	"/>
	<polygon clip-path="url(#SVGID_10_)" fill="none" stroke="#000000" stroke-width="4" points="143.94,498.05 143.94,466.6 
		150.39,466.6 150.39,463.05 133.64,463.05 133.64,466.6 140.09,466.6 140.09,498.05 	"/>
	<path clip-path="url(#SVGID_10_)" fill="none" stroke="#000000" stroke-width="4" d="M169.089,467.45l3.95,20.2h-7.8
		L169.089,467.45z M173.589,491l1.35,7.05h3.9l-6.7-35h-5.65l-6.7,35h3.6l1.35-7.05H173.589z"/>
	<polygon clip-path="url(#SVGID_10_)" fill="none" stroke="#000000" stroke-width="4" points="185.339,469.75 194.289,498.05 
		198.339,498.05 198.339,463.05 194.889,463.05 194.889,488.35 186.789,463.05 181.839,463.05 181.839,498.05 185.339,498.05 	"/>
	<path clip-path="url(#SVGID_10_)" fill="none" stroke="#000000" stroke-width="4" d="M213.789,463.05h-3.85v26.55
		c0,5.3,2.45,8.851,7.8,8.851c5.4,0,7.85-3.551,7.85-8.851v-26.55h-3.65v26.75c0,3.15-1.25,5.05-4.05,5.05
		c-2.85,0-4.1-1.899-4.1-5.05V463.05z"/>
	<polygon clip-path="url(#SVGID_10_)" fill="none" stroke="#000000" stroke-width="4" points="232.888,469.75 241.838,498.05 
		245.888,498.05 245.888,463.05 242.438,463.05 242.438,488.35 234.338,463.05 229.388,463.05 229.388,498.05 232.888,498.05 	"/>
	<path clip-path="url(#SVGID_10_)" fill="none" stroke="#000000" stroke-width="4" d="M257.438,462.7c-5.35,0-7.85,3.5-7.85,8.8
		v18.1c0,5.301,2.5,8.801,7.85,8.801c5.4,0,7.9-3.5,7.9-8.801v-4.35h-3.7v4.55c0,3.15-1.25,5.05-4.1,5.05c-2.8,0-4.1-1.899-4.1-5.05
		v-18.5c0-3.149,1.3-5.05,4.1-5.05c2.85,0,4.1,1.9,4.1,5.05v3.351h3.7v-3.15C265.338,466.2,262.838,462.7,257.438,462.7z"/>
	<path clip-path="url(#SVGID_10_)" fill="none" stroke="#000000" stroke-width="4" d="M277.188,467.45l3.95,20.2h-7.8
		L277.188,467.45z M281.688,491l1.35,7.05h3.9l-6.7-35h-5.65l-6.7,35h3.6l1.35-7.05H281.688z"/>
	<polygon clip-path="url(#SVGID_10_)" fill="none" stroke="#000000" stroke-width="4" points="293.438,469.75 302.388,498.05 
		306.438,498.05 306.438,463.05 302.987,463.05 302.987,488.35 294.888,463.05 289.938,463.05 289.938,498.05 293.438,498.05 	"/>
	<polygon clip-path="url(#SVGID_10_)" fill="none" stroke="#000000" stroke-width="4" points="313.887,469.75 322.838,498.05 
		326.887,498.05 326.887,463.05 323.438,463.05 323.438,488.35 315.338,463.05 310.387,463.05 310.387,498.05 313.887,498.05 	"/>
	<polygon clip-path="url(#SVGID_10_)" fill="none" stroke="#000000" stroke-width="4" points="337.087,498.05 340.938,498.05 
		340.938,485.5 348.387,463.05 344.688,463.05 339.188,480.25 333.737,463.05 329.688,463.05 337.087,485.5 	"/>
	<path clip-path="url(#SVGID_10_)" fill="none" stroke="#000000" stroke-width="4" d="M367.236,467.45l3.95,20.2h-7.8
		L367.236,467.45z M371.736,491l1.35,7.05h3.9l-6.699-35h-5.65l-6.7,35h3.601l1.35-7.05H371.736z"/>
	<path clip-path="url(#SVGID_10_)" fill="none" stroke="#000000" stroke-width="4" d="M387.537,462.7c-5.35,0-7.85,3.5-7.85,8.8
		v18.1c0,5.301,2.5,8.801,7.85,8.801c5.4,0,7.9-3.5,7.9-8.801v-10.3h-7.301v3.5h3.6v7c0,3.15-1.25,5.05-4.1,5.05
		c-2.8,0-4.1-1.899-4.1-5.05v-18.5c0-3.149,1.3-5.05,4.1-5.05c2.85,0,4.1,1.9,4.1,5.05v3.2h3.701v-3
		C395.438,466.2,392.938,462.7,387.537,462.7z"/>
	<polygon clip-path="url(#SVGID_10_)" fill="none" stroke="#000000" stroke-width="4" points="403.037,478.55 403.037,466.6 
		413.537,466.6 413.537,463.05 399.137,463.05 399.137,498.05 413.537,498.05 413.537,494.5 403.037,494.5 403.037,482.05 
		411.586,482.05 411.586,478.55 	"/>
	<polygon clip-path="url(#SVGID_10_)" fill="none" stroke="#000000" stroke-width="4" points="420.586,469.75 429.536,498.05 
		433.586,498.05 433.586,463.05 430.136,463.05 430.136,488.35 422.036,463.05 417.086,463.05 417.086,498.05 420.586,498.05 	"/>
	<path clip-path="url(#SVGID_10_)" fill="none" stroke="#000000" stroke-width="4" d="M441.486,494.5v-27.9h4.199
		c2.85,0,4.2,1.75,4.2,4.95v18c0,3.2-1.351,4.95-4.149,4.95H441.486z M437.586,463.05v35h8.199c5.451,0,7.951-3.3,7.951-8.65V471.75
		c0-5.4-2.5-8.7-7.951-8.7H437.586z"/>
	<path clip-path="url(#SVGID_10_)" fill="none" stroke="#000000" stroke-width="4" d="M465.636,467.45l3.95,20.2h-7.8
		L465.636,467.45z M470.136,491l1.351,7.05h3.899l-6.7-35h-5.649l-6.7,35h3.6l1.351-7.05H470.136z"/>
</g>
<path fill="#E6C590" d="M113.592,471.448v0.95h-3.7v-1.15c0-3.15-1.2-5-4-5c-2.8,0-4,1.85-4,4.95
	c0,7.851,11.751,8.601,11.751,18.451c0,5.301-2.55,8.751-7.901,8.751c-5.35,0-7.85-3.45-7.85-8.751v-2h3.65v2.2
	c0,3.15,1.3,5,4.101,5c2.8,0,4.1-1.85,4.1-5c0-7.801-11.701-8.551-11.701-18.401c0-5.4,2.5-8.751,7.75-8.751
	C111.092,462.697,113.592,466.148,113.592,471.448z M129.491,478.549v3.5h-8.55V494.5h10.5v3.55h-14.401v-35.002h14.401v3.55h-10.5
	v11.951H129.491z M140.091,498.05v-31.452h-6.45v-3.55h16.751v3.55h-6.45v31.452H140.091z M164.741,490.999l-1.35,7.051h-3.6
	l6.701-35.002h5.65l6.701,35.002h-3.9l-1.35-7.051H164.741z M165.241,487.649h7.801l-3.95-20.201L165.241,487.649z M185.341,498.05
	h-3.5v-35.002h4.951l8.1,25.302v-25.302h3.45v35.002h-4.05l-8.95-28.302V498.05z M213.791,489.8c0,3.149,1.25,5.05,4.1,5.05
	c2.8,0,4.05-1.9,4.05-5.05v-26.752h3.65V489.6c0,5.3-2.45,8.851-7.851,8.851c-5.35,0-7.8-3.551-7.8-8.851v-26.552h3.85V489.8z
	 M232.89,498.05h-3.5v-35.002h4.95l8.101,25.302v-25.302h3.45v35.002h-4.05l-8.951-28.302V498.05z M265.341,471.498v3.15h-3.7
	v-3.351c0-3.149-1.25-5.05-4.101-5.05c-2.8,0-4.1,1.9-4.1,5.05V489.8c0,3.149,1.3,5.05,4.1,5.05c2.851,0,4.101-1.9,4.101-5.05
	v-4.551h3.7v4.351c0,5.3-2.5,8.801-7.9,8.801c-5.351,0-7.851-3.501-7.851-8.801v-18.102c0-5.3,2.5-8.801,7.851-8.801
	C262.84,462.697,265.341,466.198,265.341,471.498z M272.84,490.999l-1.35,7.051h-3.6l6.7-35.002h5.65l6.7,35.002h-3.9l-1.35-7.051
	H272.84z M273.34,487.649h7.8l-3.95-20.201L273.34,487.649z M293.439,498.05h-3.5v-35.002h4.951l8.1,25.302v-25.302h3.451v35.002
	h-4.051l-8.951-28.302V498.05z M313.89,498.05h-3.5v-35.002h4.95l8.101,25.302v-25.302h3.45v35.002h-4.051l-8.95-28.302V498.05z
	 M337.09,485.499l-7.4-22.451h4.051l5.449,17.201l5.501-17.201h3.7l-7.451,22.451v12.551h-3.85V485.499z M362.891,490.999
	l-1.351,7.051h-3.601l6.701-35.002h5.65l6.699,35.002h-3.899l-1.351-7.051H362.891z M363.391,487.649h7.8l-3.95-20.201
	L363.391,487.649z M395.436,471.498v3h-3.7v-3.2c0-3.149-1.25-5.05-4.101-5.05c-2.8,0-4.1,1.9-4.1,5.05V489.8
	c0,3.149,1.3,5.05,4.1,5.05c2.851,0,4.101-1.9,4.101-5.05v-7.001h-3.601v-3.5h7.301V489.6c0,5.3-2.5,8.801-7.9,8.801
	c-5.351,0-7.851-3.501-7.851-8.801v-18.102c0-5.3,2.5-8.801,7.851-8.801C392.936,462.697,395.436,466.198,395.436,471.498z
	 M411.585,478.549v3.5h-8.55V494.5h10.5v3.55h-14.4v-35.002h14.4v3.55h-10.5v11.951H411.585z M420.584,498.05h-3.5v-35.002h4.951
	l8.1,25.302v-25.302h3.451v35.002h-4.051l-8.951-28.302V498.05z M445.785,463.048c5.449,0,7.95,3.3,7.95,8.7v17.651
	c0,5.351-2.501,8.65-7.95,8.65h-8.201v-35.002H445.785z M445.734,494.5c2.801,0,4.15-1.75,4.15-4.95v-18.002
	c0-3.2-1.35-4.95-4.2-4.95h-4.2V494.5H445.734z M461.284,490.999l-1.351,7.051h-3.6l6.7-35.002h5.65l6.7,35.002h-3.9l-1.35-7.051
	H461.284z M461.784,487.649h7.801l-3.95-20.201L461.784,487.649z"/>
</svg>
